; NON-PLATED HOLES START AT T1
; THROUGH (PLATED) HOLES START AT T100
M48
INCH
T100C0.057917
T101C0.098425
T102C0.040333
T103C0.026042
T104C0.038000
T105C0.039370
T106C0.038779
%
T100
X030985Y011748
X030985Y009791
T101
X008985Y002200
X008985Y008200
T102
X004985Y017791
X004985Y016791
X004985Y013791
X004985Y015791
X004985Y014791
X003985Y014791
X003985Y017791
X003985Y013791
X003985Y015791
X003985Y016791
T103
X011985Y005791
X021885Y005795
X011985Y003791
X021885Y004795
X021885Y003795
T104
X023985Y003791
X030985Y016791
X029985Y003791
X030985Y017791
X030985Y015791
X023985Y007391
X030985Y014791
X029985Y007391
T105
X001985Y006191
X008985Y004700
X001985Y004169
X001985Y002791
X008985Y003700
X008985Y006700
X008985Y005700
X001985Y007569
T106
X011990Y020648
X011990Y010791
X019988Y020648
X023982Y020648
X025980Y020648
X015984Y020648
X025980Y010791
X023982Y010791
X014990Y010791
X013987Y020648
X008989Y020648
X021985Y010791
X024976Y020648
X008989Y010791
X022979Y020648
X022979Y010791
X012983Y010791
X019988Y010791
X020982Y020648
X017981Y010791
X021985Y020648
X012983Y020648
X018985Y020648
X026983Y020648
X010986Y010791
X009993Y010791
X015984Y010791
X017981Y020648
X016988Y010791
X013987Y010791
X016988Y020648
X020982Y010791
X014990Y020648
X026983Y010791
X024976Y010791
X009993Y020648
X018985Y010791
X010986Y020648
T00
M30
