G04 MADE WITH FRITZING*
G04 WWW.FRITZING.ORG*
G04 DOUBLE SIDED*
G04 HOLES PLATED*
G04 CONTOUR ON CENTER OF CONTOUR VECTOR*
%ASAXBY*%
%FSLAX23Y23*%
%MOIN*%
%OFA0B0*%
%SFA1.0B1.0*%
%ADD10C,0.078000*%
%ADD11C,0.078125*%
%ADD12C,0.071828*%
%ADD13C,0.086000*%
%ADD14C,0.076000*%
%ADD15C,0.138425*%
%ADD16C,0.073667*%
%ADD17C,0.099583*%
%ADD18R,0.078000X0.078000*%
%ADD19R,0.077630X0.077806*%
%ADD20C,0.032000*%
%ADD21C,0.048000*%
%ADD22R,0.001000X0.001000*%
%LNCOPPER0*%
G90*
G70*
G54D10*
X3099Y1779D03*
X3099Y1679D03*
X3099Y1579D03*
X3099Y1479D03*
G54D11*
X1199Y579D03*
X1199Y379D03*
X2189Y580D03*
X2189Y480D03*
X2189Y380D03*
G54D12*
X899Y1079D03*
X999Y1079D03*
X1099Y1079D03*
X1199Y1079D03*
X1298Y1079D03*
X1399Y1079D03*
X1499Y1079D03*
X1598Y1079D03*
X1699Y1079D03*
X1798Y1079D03*
X1899Y1079D03*
X1999Y1079D03*
X2098Y1079D03*
X2199Y1079D03*
X2298Y1079D03*
X2398Y1079D03*
X2498Y1079D03*
X2598Y1079D03*
X2698Y1079D03*
X2698Y2065D03*
X2598Y2065D03*
X2498Y2065D03*
X2398Y2065D03*
X2298Y2065D03*
X2199Y2065D03*
X2098Y2065D03*
X1999Y2065D03*
X1899Y2065D03*
X1798Y2065D03*
X1699Y2065D03*
X1598Y2065D03*
X1499Y2065D03*
X1399Y2065D03*
X1298Y2065D03*
X1199Y2065D03*
X1099Y2065D03*
X999Y2065D03*
X899Y2065D03*
G54D13*
X199Y619D03*
G54D14*
X899Y670D03*
G54D13*
X199Y279D03*
G54D14*
X899Y570D03*
X899Y470D03*
X899Y370D03*
G54D15*
X899Y220D03*
X899Y820D03*
G54D13*
X199Y417D03*
X199Y757D03*
G54D10*
X2999Y379D03*
X2999Y739D03*
X2399Y739D03*
X2399Y379D03*
G54D16*
X499Y1379D03*
X399Y1379D03*
X499Y1479D03*
X399Y1479D03*
X499Y1579D03*
X399Y1579D03*
X499Y1679D03*
X399Y1679D03*
X499Y1779D03*
X399Y1779D03*
G54D17*
X3099Y979D03*
X3099Y1175D03*
G54D18*
X3099Y1779D03*
G54D19*
X2399Y739D03*
X2399Y380D03*
X2999Y379D03*
X2999Y739D03*
G54D20*
X598Y1279D02*
X699Y1378D01*
D02*
X699Y1378D02*
X2398Y1378D01*
D02*
X297Y1279D02*
X598Y1279D01*
D02*
X2398Y1378D02*
X2798Y1678D01*
D02*
X298Y1580D02*
X297Y1279D01*
D02*
X2798Y1678D02*
X2798Y2179D01*
D02*
X378Y1579D02*
X298Y1580D01*
D02*
X2798Y2179D02*
X1900Y2179D01*
D02*
X1900Y2179D02*
X1899Y2084D01*
D02*
X1999Y2045D02*
X1999Y1780D01*
D02*
X1999Y1780D02*
X519Y1779D01*
D02*
X519Y1579D02*
X2197Y1579D01*
D02*
X2197Y1579D02*
X2199Y2045D01*
D02*
X2698Y880D02*
X2416Y747D01*
D02*
X2698Y1060D02*
X2698Y880D01*
D02*
X199Y777D02*
X198Y1678D01*
D02*
X198Y1678D02*
X378Y1679D01*
D02*
X2299Y1480D02*
X2298Y2045D01*
D02*
X519Y1479D02*
X2299Y1480D01*
D02*
X2098Y1678D02*
X1798Y1678D01*
D02*
X1798Y1678D02*
X519Y1679D01*
D02*
X2098Y2045D02*
X2098Y1678D01*
D02*
X1798Y1879D02*
X399Y1879D01*
D02*
X399Y1879D02*
X399Y1799D01*
D02*
X1798Y2045D02*
X1798Y1879D01*
D02*
X198Y2080D02*
X880Y2065D01*
D02*
X198Y1678D02*
X198Y2080D01*
D02*
X378Y1679D02*
X198Y1678D01*
D02*
X1600Y478D02*
X1099Y479D01*
D02*
X1598Y1060D02*
X1600Y478D01*
D02*
X1099Y479D02*
X998Y379D01*
D02*
X998Y379D02*
X918Y372D01*
D02*
X1500Y979D02*
X1499Y1060D01*
D02*
X697Y979D02*
X1500Y979D01*
D02*
X697Y478D02*
X697Y979D01*
D02*
X879Y471D02*
X697Y478D01*
D02*
X3080Y1679D02*
X2899Y1678D01*
D02*
X1399Y2279D02*
X1399Y2084D01*
D02*
X2899Y2279D02*
X1399Y2279D01*
D02*
X2899Y1678D02*
X2899Y2279D01*
D02*
X2176Y479D02*
X1699Y478D01*
G54D21*
D02*
X1198Y280D02*
X1198Y366D01*
D02*
X3098Y280D02*
X1198Y280D01*
D02*
X3099Y679D02*
X3098Y280D01*
D02*
X3015Y729D02*
X3099Y679D01*
G54D20*
D02*
X2383Y728D02*
X2199Y587D01*
G54D21*
D02*
X918Y571D02*
X1186Y579D01*
D02*
X2798Y778D02*
X2412Y393D01*
D02*
X2798Y1180D02*
X2798Y778D01*
D02*
X2197Y1180D02*
X2798Y1180D01*
D02*
X2198Y1099D02*
X2197Y1180D01*
D02*
X2198Y1099D02*
X2197Y1180D01*
D02*
X2798Y1180D02*
X3085Y1466D01*
D02*
X2197Y1180D02*
X2798Y1180D01*
G54D20*
D02*
X2698Y1279D02*
X3083Y1568D01*
D02*
X898Y1279D02*
X2698Y1279D01*
D02*
X899Y1099D02*
X898Y1279D01*
D02*
X99Y2179D02*
X99Y78D01*
D02*
X99Y78D02*
X3200Y78D01*
D02*
X3200Y78D02*
X3199Y1780D01*
D02*
X3199Y1780D02*
X3118Y1779D01*
D02*
X1099Y2179D02*
X99Y2179D01*
D02*
X1099Y2084D02*
X1099Y2179D01*
G54D21*
D02*
X3087Y952D02*
X3006Y757D01*
G54D22*
X3094Y1503D02*
X3103Y1503D01*
X3091Y1502D02*
X3106Y1502D01*
X3089Y1501D02*
X3109Y1501D01*
X3087Y1500D02*
X3110Y1500D01*
X3085Y1499D02*
X3112Y1499D01*
X3084Y1498D02*
X3113Y1498D01*
X3083Y1497D02*
X3114Y1497D01*
X3082Y1496D02*
X3115Y1496D01*
X3081Y1495D02*
X3116Y1495D01*
X3080Y1494D02*
X3117Y1494D01*
X3079Y1493D02*
X3118Y1493D01*
X3079Y1492D02*
X3118Y1492D01*
X3078Y1491D02*
X3119Y1491D01*
X3078Y1490D02*
X3120Y1490D01*
X3077Y1489D02*
X3120Y1489D01*
X3077Y1488D02*
X3120Y1488D01*
X3076Y1487D02*
X3121Y1487D01*
X3076Y1486D02*
X3121Y1486D01*
X3076Y1485D02*
X3121Y1485D01*
X3075Y1484D02*
X3122Y1484D01*
X3075Y1483D02*
X3122Y1483D01*
X3075Y1482D02*
X3122Y1482D01*
X3075Y1481D02*
X3122Y1481D01*
X3075Y1480D02*
X3122Y1480D01*
X3075Y1479D02*
X3122Y1479D01*
X3075Y1478D02*
X3122Y1478D01*
X3075Y1477D02*
X3122Y1477D01*
X3075Y1476D02*
X3122Y1476D01*
X3075Y1475D02*
X3122Y1475D01*
X3075Y1474D02*
X3122Y1474D01*
X3075Y1473D02*
X3122Y1473D01*
X3075Y1472D02*
X3122Y1472D01*
X3075Y1471D02*
X3122Y1471D01*
X3075Y1470D02*
X3122Y1470D01*
X3075Y1469D02*
X3122Y1469D01*
X3075Y1468D02*
X3122Y1468D01*
X3075Y1467D02*
X3122Y1467D01*
X3075Y1466D02*
X3122Y1466D01*
X3075Y1465D02*
X3122Y1465D01*
X3075Y1464D02*
X3122Y1464D01*
X3075Y1463D02*
X3122Y1463D01*
X3075Y1462D02*
X3122Y1462D01*
X3075Y1461D02*
X3122Y1461D01*
X3075Y1460D02*
X3122Y1460D01*
X3075Y1459D02*
X3122Y1459D01*
X3075Y1458D02*
X3122Y1458D01*
X3075Y1457D02*
X3122Y1457D01*
X3075Y1456D02*
X3122Y1456D01*
X3075Y1455D02*
X3122Y1455D01*
X3075Y1454D02*
X3122Y1454D01*
X3075Y1453D02*
X3122Y1453D01*
X3075Y1452D02*
X3122Y1452D01*
X3075Y1451D02*
X3122Y1451D01*
X3075Y1450D02*
X3122Y1450D01*
X3075Y1449D02*
X3122Y1449D01*
X3075Y1448D02*
X3122Y1448D01*
X3075Y1447D02*
X3122Y1447D01*
X3075Y1446D02*
X3122Y1446D01*
X3075Y1445D02*
X3122Y1445D01*
X3075Y1444D02*
X3122Y1444D01*
X3075Y1443D02*
X3122Y1443D01*
X3075Y1442D02*
X3122Y1442D01*
X3075Y1441D02*
X3122Y1441D01*
X3075Y1440D02*
X3122Y1440D01*
X3075Y1439D02*
X3122Y1439D01*
X3075Y1438D02*
X3122Y1438D01*
X3075Y1437D02*
X3122Y1437D01*
X3075Y1436D02*
X3122Y1436D01*
X3075Y1435D02*
X3122Y1435D01*
X3075Y1434D02*
X3122Y1434D01*
X3075Y1433D02*
X3122Y1433D01*
X3075Y1432D02*
X3122Y1432D01*
X3075Y1431D02*
X3122Y1431D01*
X3076Y1430D02*
X3123Y1430D01*
X3076Y1429D02*
X3123Y1429D01*
X3076Y1428D02*
X3123Y1428D01*
X3076Y1427D02*
X3123Y1427D01*
X3076Y1426D02*
X3123Y1426D01*
X3076Y1425D02*
X3123Y1425D01*
X3076Y1424D02*
X3123Y1424D01*
X3076Y1423D02*
X3123Y1423D01*
X3076Y1422D02*
X3123Y1422D01*
X3076Y1421D02*
X3123Y1421D01*
X3076Y1420D02*
X3123Y1420D01*
X3076Y1419D02*
X3123Y1419D01*
X3076Y1418D02*
X3123Y1418D01*
X3076Y1417D02*
X3123Y1417D01*
X3076Y1416D02*
X3123Y1416D01*
X3076Y1415D02*
X3123Y1415D01*
X3076Y1414D02*
X3123Y1414D01*
X3076Y1413D02*
X3123Y1413D01*
X3076Y1412D02*
X3123Y1412D01*
X3076Y1411D02*
X3123Y1411D01*
X3076Y1410D02*
X3123Y1410D01*
X3076Y1409D02*
X3123Y1409D01*
X3076Y1408D02*
X3123Y1408D01*
X3076Y1407D02*
X3123Y1407D01*
X3076Y1406D02*
X3123Y1406D01*
X3076Y1405D02*
X3123Y1405D01*
X3076Y1404D02*
X3123Y1404D01*
X3076Y1403D02*
X3123Y1403D01*
X3076Y1402D02*
X3123Y1402D01*
X3076Y1401D02*
X3123Y1401D01*
X3076Y1400D02*
X3123Y1400D01*
X3076Y1399D02*
X3123Y1399D01*
X3076Y1398D02*
X3123Y1398D01*
X3076Y1397D02*
X3123Y1397D01*
X3076Y1396D02*
X3123Y1396D01*
X3076Y1395D02*
X3123Y1395D01*
X3076Y1394D02*
X3123Y1394D01*
X3076Y1393D02*
X3123Y1393D01*
X3076Y1392D02*
X3123Y1392D01*
X3076Y1391D02*
X3123Y1391D01*
X3076Y1390D02*
X3123Y1390D01*
X3076Y1389D02*
X3123Y1389D01*
X3076Y1388D02*
X3123Y1388D01*
X3076Y1387D02*
X3123Y1387D01*
X3076Y1386D02*
X3123Y1386D01*
X3076Y1385D02*
X3123Y1385D01*
X3076Y1384D02*
X3123Y1384D01*
X3076Y1383D02*
X3123Y1383D01*
X3076Y1382D02*
X3123Y1382D01*
X3076Y1381D02*
X3123Y1381D01*
X3076Y1380D02*
X3123Y1380D01*
X3076Y1379D02*
X3123Y1379D01*
X3076Y1378D02*
X3123Y1378D01*
X3076Y1377D02*
X3123Y1377D01*
X3076Y1376D02*
X3123Y1376D01*
X3076Y1375D02*
X3123Y1375D01*
X3076Y1374D02*
X3123Y1374D01*
X3076Y1373D02*
X3123Y1373D01*
X3076Y1372D02*
X3123Y1372D01*
X3076Y1371D02*
X3123Y1371D01*
X3076Y1370D02*
X3123Y1370D01*
X3076Y1369D02*
X3123Y1369D01*
X3076Y1368D02*
X3123Y1368D01*
X3076Y1367D02*
X3123Y1367D01*
X3076Y1366D02*
X3123Y1366D01*
X3076Y1365D02*
X3123Y1365D01*
X3076Y1364D02*
X3123Y1364D01*
X3076Y1363D02*
X3123Y1363D01*
X3076Y1362D02*
X3123Y1362D01*
X3076Y1361D02*
X3123Y1361D01*
X3076Y1360D02*
X3123Y1360D01*
X3076Y1359D02*
X3123Y1359D01*
X3076Y1358D02*
X3123Y1358D01*
X3076Y1357D02*
X3123Y1357D01*
X3076Y1356D02*
X3123Y1356D01*
X3076Y1355D02*
X3123Y1355D01*
X3076Y1354D02*
X3123Y1354D01*
X3076Y1353D02*
X3123Y1353D01*
X3076Y1352D02*
X3123Y1352D01*
X3076Y1351D02*
X3123Y1351D01*
X3076Y1350D02*
X3123Y1350D01*
X3076Y1349D02*
X3123Y1349D01*
X3076Y1348D02*
X3123Y1348D01*
X3076Y1347D02*
X3123Y1347D01*
X3076Y1346D02*
X3123Y1346D01*
X3076Y1345D02*
X3123Y1345D01*
X3076Y1344D02*
X3123Y1344D01*
X3076Y1343D02*
X3123Y1343D01*
X3076Y1342D02*
X3123Y1342D01*
X3076Y1341D02*
X3123Y1341D01*
X3076Y1340D02*
X3123Y1340D01*
X3076Y1339D02*
X3123Y1339D01*
X3076Y1338D02*
X3123Y1338D01*
X3076Y1337D02*
X3123Y1337D01*
X3076Y1336D02*
X3123Y1336D01*
X3076Y1335D02*
X3123Y1335D01*
X3076Y1334D02*
X3123Y1334D01*
X3076Y1333D02*
X3123Y1333D01*
X3076Y1332D02*
X3123Y1332D01*
X3076Y1331D02*
X3123Y1331D01*
X3076Y1330D02*
X3123Y1330D01*
X3076Y1329D02*
X3123Y1329D01*
X3076Y1328D02*
X3123Y1328D01*
X3076Y1327D02*
X3123Y1327D01*
X3076Y1326D02*
X3123Y1326D01*
X3076Y1325D02*
X3123Y1325D01*
X3076Y1324D02*
X3123Y1324D01*
X3076Y1323D02*
X3123Y1323D01*
X3076Y1322D02*
X3123Y1322D01*
X3076Y1321D02*
X3123Y1321D01*
X3076Y1320D02*
X3123Y1320D01*
X3076Y1319D02*
X3123Y1319D01*
X3076Y1318D02*
X3123Y1318D01*
X3076Y1317D02*
X3123Y1317D01*
X3076Y1316D02*
X3123Y1316D01*
X3076Y1315D02*
X3123Y1315D01*
X3076Y1314D02*
X3123Y1314D01*
X3076Y1313D02*
X3123Y1313D01*
X3076Y1312D02*
X3123Y1312D01*
X3076Y1311D02*
X3123Y1311D01*
X3076Y1310D02*
X3123Y1310D01*
X3076Y1309D02*
X3123Y1309D01*
X3076Y1308D02*
X3123Y1308D01*
X3076Y1307D02*
X3123Y1307D01*
X3076Y1306D02*
X3123Y1306D01*
X3076Y1305D02*
X3123Y1305D01*
X3076Y1304D02*
X3123Y1304D01*
X3076Y1303D02*
X3123Y1303D01*
X3076Y1302D02*
X3123Y1302D01*
X3076Y1301D02*
X3123Y1301D01*
X3076Y1300D02*
X3123Y1300D01*
X3076Y1299D02*
X3123Y1299D01*
X3076Y1298D02*
X3123Y1298D01*
X3076Y1297D02*
X3123Y1297D01*
X3076Y1296D02*
X3123Y1296D01*
X3076Y1295D02*
X3123Y1295D01*
X3076Y1294D02*
X3123Y1294D01*
X3076Y1293D02*
X3123Y1293D01*
X3076Y1292D02*
X3123Y1292D01*
X3076Y1291D02*
X3123Y1291D01*
X3076Y1290D02*
X3123Y1290D01*
X3076Y1289D02*
X3123Y1289D01*
X3076Y1288D02*
X3123Y1288D01*
X3076Y1287D02*
X3123Y1287D01*
X3076Y1286D02*
X3123Y1286D01*
X3076Y1285D02*
X3123Y1285D01*
X3076Y1284D02*
X3123Y1284D01*
X3076Y1283D02*
X3123Y1283D01*
X3076Y1282D02*
X3123Y1282D01*
X3076Y1281D02*
X3123Y1281D01*
X3076Y1280D02*
X3123Y1280D01*
X3076Y1279D02*
X3123Y1279D01*
X3076Y1278D02*
X3123Y1278D01*
X3076Y1277D02*
X3123Y1277D01*
X3076Y1276D02*
X3123Y1276D01*
X3076Y1275D02*
X3123Y1275D01*
X3076Y1274D02*
X3123Y1274D01*
X3076Y1273D02*
X3123Y1273D01*
X3076Y1272D02*
X3123Y1272D01*
X3076Y1271D02*
X3123Y1271D01*
X3076Y1270D02*
X3123Y1270D01*
X3076Y1269D02*
X3123Y1269D01*
X3076Y1268D02*
X3123Y1268D01*
X3076Y1267D02*
X3123Y1267D01*
X3076Y1266D02*
X3123Y1266D01*
X3076Y1265D02*
X3123Y1265D01*
X3076Y1264D02*
X3123Y1264D01*
X3076Y1263D02*
X3123Y1263D01*
X3076Y1262D02*
X3123Y1262D01*
X3076Y1261D02*
X3123Y1261D01*
X3076Y1260D02*
X3123Y1260D01*
X3076Y1259D02*
X3123Y1259D01*
X3076Y1258D02*
X3123Y1258D01*
X3076Y1257D02*
X3123Y1257D01*
X3076Y1256D02*
X3123Y1256D01*
X3076Y1255D02*
X3123Y1255D01*
X3076Y1254D02*
X3123Y1254D01*
X3076Y1253D02*
X3123Y1253D01*
X3076Y1252D02*
X3123Y1252D01*
X3076Y1251D02*
X3123Y1251D01*
X3076Y1250D02*
X3123Y1250D01*
X3076Y1249D02*
X3123Y1249D01*
X3076Y1248D02*
X3123Y1248D01*
X3076Y1247D02*
X3123Y1247D01*
X3076Y1246D02*
X3123Y1246D01*
X3076Y1245D02*
X3123Y1245D01*
X3076Y1244D02*
X3123Y1244D01*
X3076Y1243D02*
X3123Y1243D01*
X3076Y1242D02*
X3123Y1242D01*
X3076Y1241D02*
X3123Y1241D01*
X3076Y1240D02*
X3123Y1240D01*
X3076Y1239D02*
X3123Y1239D01*
X3076Y1238D02*
X3123Y1238D01*
X3076Y1237D02*
X3123Y1237D01*
X3076Y1236D02*
X3123Y1236D01*
X3076Y1235D02*
X3123Y1235D01*
X3076Y1234D02*
X3123Y1234D01*
X3076Y1233D02*
X3123Y1233D01*
X3076Y1232D02*
X3123Y1232D01*
X3076Y1231D02*
X3123Y1231D01*
X3076Y1230D02*
X3123Y1230D01*
X3076Y1229D02*
X3123Y1229D01*
X3076Y1228D02*
X3123Y1228D01*
X3076Y1227D02*
X3123Y1227D01*
X3076Y1226D02*
X3123Y1226D01*
X3076Y1225D02*
X3123Y1225D01*
X3076Y1224D02*
X3123Y1224D01*
X3076Y1223D02*
X3123Y1223D01*
X3076Y1222D02*
X3123Y1222D01*
X3076Y1221D02*
X3123Y1221D01*
X3076Y1220D02*
X3123Y1220D01*
X3076Y1219D02*
X3123Y1219D01*
X3076Y1218D02*
X3123Y1218D01*
X3076Y1217D02*
X3123Y1217D01*
X3076Y1216D02*
X3123Y1216D01*
X3076Y1215D02*
X3123Y1215D01*
X3076Y1214D02*
X3123Y1214D01*
X3076Y1213D02*
X3123Y1213D01*
X3076Y1212D02*
X3123Y1212D01*
X3076Y1211D02*
X3123Y1211D01*
X3076Y1210D02*
X3123Y1210D01*
X3076Y1209D02*
X3123Y1209D01*
X3076Y1208D02*
X3123Y1208D01*
X3076Y1207D02*
X3123Y1207D01*
X3076Y1206D02*
X3123Y1206D01*
X3076Y1205D02*
X3123Y1205D01*
X3076Y1204D02*
X3123Y1204D01*
X3076Y1203D02*
X3123Y1203D01*
X3076Y1202D02*
X3123Y1202D01*
X3076Y1201D02*
X3123Y1201D01*
X3076Y1200D02*
X3123Y1200D01*
X3076Y1199D02*
X3123Y1199D01*
X3076Y1198D02*
X3123Y1198D01*
X3076Y1197D02*
X3123Y1197D01*
X3076Y1196D02*
X3123Y1196D01*
X3075Y1195D02*
X3122Y1195D01*
X3075Y1194D02*
X3122Y1194D01*
X3075Y1193D02*
X3122Y1193D01*
X3075Y1192D02*
X3122Y1192D01*
X3075Y1191D02*
X3122Y1191D01*
X3075Y1190D02*
X3122Y1190D01*
X3075Y1189D02*
X3122Y1189D01*
X3075Y1188D02*
X3122Y1188D01*
X3075Y1187D02*
X3122Y1187D01*
X3075Y1186D02*
X3122Y1186D01*
X3075Y1185D02*
X3122Y1185D01*
X3075Y1184D02*
X3122Y1184D01*
X3075Y1183D02*
X3122Y1183D01*
X3075Y1182D02*
X3122Y1182D01*
X3075Y1181D02*
X3122Y1181D01*
X3075Y1180D02*
X3122Y1180D01*
X3075Y1179D02*
X3122Y1179D01*
X3075Y1178D02*
X3122Y1178D01*
X3075Y1177D02*
X3122Y1177D01*
X3075Y1176D02*
X3122Y1176D01*
X3075Y1175D02*
X3122Y1175D01*
X3075Y1174D02*
X3122Y1174D01*
X3075Y1173D02*
X3122Y1173D01*
X3075Y1172D02*
X3122Y1172D01*
X3075Y1171D02*
X3122Y1171D01*
X3076Y1170D02*
X3121Y1170D01*
X3076Y1169D02*
X3121Y1169D01*
X3076Y1168D02*
X3121Y1168D01*
X3077Y1167D02*
X3120Y1167D01*
X3077Y1166D02*
X3120Y1166D01*
X3077Y1165D02*
X3120Y1165D01*
X3078Y1164D02*
X3119Y1164D01*
X3078Y1163D02*
X3119Y1163D01*
X3079Y1162D02*
X3118Y1162D01*
X3080Y1161D02*
X3117Y1161D01*
X3081Y1160D02*
X3116Y1160D01*
X3081Y1159D02*
X3116Y1159D01*
X3083Y1158D02*
X3115Y1158D01*
X3084Y1157D02*
X3113Y1157D01*
X3085Y1156D02*
X3112Y1156D01*
X3086Y1155D02*
X3111Y1155D01*
X3088Y1154D02*
X3109Y1154D01*
X3090Y1153D02*
X3107Y1153D01*
X3093Y1152D02*
X3104Y1152D01*
X1696Y1095D02*
X1702Y1095D01*
X1693Y1094D02*
X1705Y1094D01*
X1691Y1093D02*
X1707Y1093D01*
X1690Y1092D02*
X1708Y1092D01*
X1688Y1091D02*
X1710Y1091D01*
X1687Y1090D02*
X1711Y1090D01*
X1687Y1089D02*
X1711Y1089D01*
X1686Y1088D02*
X1712Y1088D01*
X1685Y1087D02*
X1713Y1087D01*
X1685Y1086D02*
X1713Y1086D01*
X1685Y1085D02*
X1713Y1085D01*
X1684Y1084D02*
X1714Y1084D01*
X1684Y1083D02*
X1714Y1083D01*
X1684Y1082D02*
X1714Y1082D01*
X1684Y1081D02*
X1714Y1081D01*
X1684Y1080D02*
X1714Y1080D01*
X1684Y1079D02*
X1715Y1079D01*
X1684Y1078D02*
X1715Y1078D01*
X1684Y1077D02*
X1715Y1077D01*
X1684Y1076D02*
X1715Y1076D01*
X1684Y1075D02*
X1715Y1075D01*
X1684Y1074D02*
X1715Y1074D01*
X1684Y1073D02*
X1715Y1073D01*
X1684Y1072D02*
X1715Y1072D01*
X1684Y1071D02*
X1715Y1071D01*
X1684Y1070D02*
X1715Y1070D01*
X1684Y1069D02*
X1715Y1069D01*
X1684Y1068D02*
X1715Y1068D01*
X1684Y1067D02*
X1715Y1067D01*
X1684Y1066D02*
X1715Y1066D01*
X1684Y1065D02*
X1715Y1065D01*
X1684Y1064D02*
X1715Y1064D01*
X1684Y1063D02*
X1715Y1063D01*
X1684Y1062D02*
X1715Y1062D01*
X1684Y1061D02*
X1715Y1061D01*
X1684Y1060D02*
X1715Y1060D01*
X1684Y1059D02*
X1715Y1059D01*
X1684Y1058D02*
X1715Y1058D01*
X1684Y1057D02*
X1715Y1057D01*
X1684Y1056D02*
X1715Y1056D01*
X1684Y1055D02*
X1715Y1055D01*
X1684Y1054D02*
X1715Y1054D01*
X1684Y1053D02*
X1715Y1053D01*
X1684Y1052D02*
X1715Y1052D01*
X1684Y1051D02*
X1715Y1051D01*
X1684Y1050D02*
X1715Y1050D01*
X1684Y1049D02*
X1715Y1049D01*
X1684Y1048D02*
X1715Y1048D01*
X1684Y1047D02*
X1715Y1047D01*
X1684Y1046D02*
X1715Y1046D01*
X1684Y1045D02*
X1715Y1045D01*
X1684Y1044D02*
X1715Y1044D01*
X1684Y1043D02*
X1715Y1043D01*
X1684Y1042D02*
X1715Y1042D01*
X1684Y1041D02*
X1715Y1041D01*
X1684Y1040D02*
X1715Y1040D01*
X1684Y1039D02*
X1715Y1039D01*
X1684Y1038D02*
X1715Y1038D01*
X1684Y1037D02*
X1715Y1037D01*
X1684Y1036D02*
X1715Y1036D01*
X1684Y1035D02*
X1715Y1035D01*
X1684Y1034D02*
X1715Y1034D01*
X1684Y1033D02*
X1715Y1033D01*
X1684Y1032D02*
X1715Y1032D01*
X1684Y1031D02*
X1715Y1031D01*
X1684Y1030D02*
X1715Y1030D01*
X1684Y1029D02*
X1715Y1029D01*
X1684Y1028D02*
X1715Y1028D01*
X1684Y1027D02*
X1715Y1027D01*
X1684Y1026D02*
X1715Y1026D01*
X1684Y1025D02*
X1715Y1025D01*
X1684Y1024D02*
X1715Y1024D01*
X1684Y1023D02*
X1715Y1023D01*
X1684Y1022D02*
X1715Y1022D01*
X1684Y1021D02*
X1715Y1021D01*
X1684Y1020D02*
X1715Y1020D01*
X1684Y1019D02*
X1715Y1019D01*
X1684Y1018D02*
X1715Y1018D01*
X1684Y1017D02*
X1715Y1017D01*
X1684Y1016D02*
X1715Y1016D01*
X1684Y1015D02*
X1715Y1015D01*
X1684Y1014D02*
X1715Y1014D01*
X1684Y1013D02*
X1715Y1013D01*
X1684Y1012D02*
X1715Y1012D01*
X1684Y1011D02*
X1715Y1011D01*
X1684Y1010D02*
X1715Y1010D01*
X1684Y1009D02*
X1715Y1009D01*
X1684Y1008D02*
X1715Y1008D01*
X1684Y1007D02*
X1715Y1007D01*
X1684Y1006D02*
X1715Y1006D01*
X1684Y1005D02*
X1715Y1005D01*
X1684Y1004D02*
X1715Y1004D01*
X1684Y1003D02*
X1715Y1003D01*
X1684Y1002D02*
X1715Y1002D01*
X1684Y1001D02*
X1715Y1001D01*
X1684Y1000D02*
X1715Y1000D01*
X1684Y999D02*
X1715Y999D01*
X1684Y998D02*
X1715Y998D01*
X1684Y997D02*
X1715Y997D01*
X1684Y996D02*
X1715Y996D01*
X1684Y995D02*
X1715Y995D01*
X1684Y994D02*
X1715Y994D01*
X1684Y993D02*
X1715Y993D01*
X1684Y992D02*
X1715Y992D01*
X1684Y991D02*
X1715Y991D01*
X1684Y990D02*
X1715Y990D01*
X1684Y989D02*
X1715Y989D01*
X1684Y988D02*
X1715Y988D01*
X1684Y987D02*
X1715Y987D01*
X1684Y986D02*
X1715Y986D01*
X1684Y985D02*
X1715Y985D01*
X1684Y984D02*
X1715Y984D01*
X1684Y983D02*
X1715Y983D01*
X1684Y982D02*
X1715Y982D01*
X1684Y981D02*
X1715Y981D01*
X1684Y980D02*
X1715Y980D01*
X1684Y979D02*
X1715Y979D01*
X1684Y978D02*
X1715Y978D01*
X1684Y977D02*
X1715Y977D01*
X1684Y976D02*
X1715Y976D01*
X1684Y975D02*
X1715Y975D01*
X1684Y974D02*
X1715Y974D01*
X1684Y973D02*
X1715Y973D01*
X1684Y972D02*
X1715Y972D01*
X1684Y971D02*
X1715Y971D01*
X1684Y970D02*
X1715Y970D01*
X1684Y969D02*
X1715Y969D01*
X1684Y968D02*
X1715Y968D01*
X1684Y967D02*
X1715Y967D01*
X1684Y966D02*
X1715Y966D01*
X1684Y965D02*
X1715Y965D01*
X1684Y964D02*
X1715Y964D01*
X1684Y963D02*
X1715Y963D01*
X1684Y962D02*
X1715Y962D01*
X1684Y961D02*
X1715Y961D01*
X1684Y960D02*
X1715Y960D01*
X1684Y959D02*
X1715Y959D01*
X1684Y958D02*
X1715Y958D01*
X1684Y957D02*
X1715Y957D01*
X1684Y956D02*
X1715Y956D01*
X1684Y955D02*
X1715Y955D01*
X1684Y954D02*
X1715Y954D01*
X1684Y953D02*
X1715Y953D01*
X1684Y952D02*
X1715Y952D01*
X1684Y951D02*
X1715Y951D01*
X1684Y950D02*
X1715Y950D01*
X1684Y949D02*
X1715Y949D01*
X1684Y948D02*
X1715Y948D01*
X1684Y947D02*
X1715Y947D01*
X1684Y946D02*
X1715Y946D01*
X1684Y945D02*
X1715Y945D01*
X1684Y944D02*
X1715Y944D01*
X1684Y943D02*
X1715Y943D01*
X1684Y942D02*
X1715Y942D01*
X1684Y941D02*
X1715Y941D01*
X1684Y940D02*
X1715Y940D01*
X1684Y939D02*
X1715Y939D01*
X1684Y938D02*
X1715Y938D01*
X1684Y937D02*
X1715Y937D01*
X1684Y936D02*
X1715Y936D01*
X1684Y935D02*
X1715Y935D01*
X1684Y934D02*
X1715Y934D01*
X1684Y933D02*
X1715Y933D01*
X1684Y932D02*
X1715Y932D01*
X1684Y931D02*
X1715Y931D01*
X1684Y930D02*
X1715Y930D01*
X1684Y929D02*
X1715Y929D01*
X1684Y928D02*
X1715Y928D01*
X1684Y927D02*
X1715Y927D01*
X1684Y926D02*
X1715Y926D01*
X1684Y925D02*
X1715Y925D01*
X1684Y924D02*
X1715Y924D01*
X1684Y923D02*
X1715Y923D01*
X1684Y922D02*
X1715Y922D01*
X1684Y921D02*
X1715Y921D01*
X1684Y920D02*
X1715Y920D01*
X1684Y919D02*
X1715Y919D01*
X1684Y918D02*
X1715Y918D01*
X1684Y917D02*
X1715Y917D01*
X1684Y916D02*
X1715Y916D01*
X1684Y915D02*
X1715Y915D01*
X1684Y914D02*
X1715Y914D01*
X1684Y913D02*
X1715Y913D01*
X1684Y912D02*
X1715Y912D01*
X1684Y911D02*
X1715Y911D01*
X1684Y910D02*
X1715Y910D01*
X1684Y909D02*
X1715Y909D01*
X1684Y908D02*
X1715Y908D01*
X1684Y907D02*
X1715Y907D01*
X1684Y906D02*
X1715Y906D01*
X1684Y905D02*
X1715Y905D01*
X1684Y904D02*
X1715Y904D01*
X1684Y903D02*
X1715Y903D01*
X1684Y902D02*
X1715Y902D01*
X1684Y901D02*
X1715Y901D01*
X1684Y900D02*
X1715Y900D01*
X1684Y899D02*
X1715Y899D01*
X1684Y898D02*
X1715Y898D01*
X1684Y897D02*
X1715Y897D01*
X1684Y896D02*
X1715Y896D01*
X1684Y895D02*
X1715Y895D01*
X1684Y894D02*
X1715Y894D01*
X1684Y893D02*
X1715Y893D01*
X1684Y892D02*
X1715Y892D01*
X1684Y891D02*
X1715Y891D01*
X1684Y890D02*
X1715Y890D01*
X1684Y889D02*
X1715Y889D01*
X1684Y888D02*
X1715Y888D01*
X1684Y887D02*
X1715Y887D01*
X1684Y886D02*
X1715Y886D01*
X1684Y885D02*
X1715Y885D01*
X1684Y884D02*
X1715Y884D01*
X1684Y883D02*
X1715Y883D01*
X1684Y882D02*
X1715Y882D01*
X1684Y881D02*
X1715Y881D01*
X1684Y880D02*
X1715Y880D01*
X1684Y879D02*
X1715Y879D01*
X1684Y878D02*
X1715Y878D01*
X1684Y877D02*
X1715Y877D01*
X1684Y876D02*
X1715Y876D01*
X1684Y875D02*
X1715Y875D01*
X1684Y874D02*
X1715Y874D01*
X1684Y873D02*
X1715Y873D01*
X1684Y872D02*
X1715Y872D01*
X1684Y871D02*
X1715Y871D01*
X1684Y870D02*
X1715Y870D01*
X1684Y869D02*
X1715Y869D01*
X1684Y868D02*
X1715Y868D01*
X1684Y867D02*
X1715Y867D01*
X1684Y866D02*
X1715Y866D01*
X1684Y865D02*
X1715Y865D01*
X1684Y864D02*
X1715Y864D01*
X1684Y863D02*
X1715Y863D01*
X1684Y862D02*
X1715Y862D01*
X1684Y861D02*
X1715Y861D01*
X1684Y860D02*
X1715Y860D01*
X1684Y859D02*
X1715Y859D01*
X1684Y858D02*
X1715Y858D01*
X1684Y857D02*
X1715Y857D01*
X1684Y856D02*
X1715Y856D01*
X1684Y855D02*
X1715Y855D01*
X1684Y854D02*
X1715Y854D01*
X1684Y853D02*
X1715Y853D01*
X1684Y852D02*
X1715Y852D01*
X1684Y851D02*
X1715Y851D01*
X1684Y850D02*
X1715Y850D01*
X1684Y849D02*
X1715Y849D01*
X1684Y848D02*
X1715Y848D01*
X1684Y847D02*
X1715Y847D01*
X1684Y846D02*
X1715Y846D01*
X1684Y845D02*
X1715Y845D01*
X1684Y844D02*
X1715Y844D01*
X1684Y843D02*
X1715Y843D01*
X1684Y842D02*
X1715Y842D01*
X1684Y841D02*
X1715Y841D01*
X1684Y840D02*
X1715Y840D01*
X1684Y839D02*
X1715Y839D01*
X1684Y838D02*
X1715Y838D01*
X1684Y837D02*
X1715Y837D01*
X1684Y836D02*
X1715Y836D01*
X1684Y835D02*
X1715Y835D01*
X1684Y834D02*
X1715Y834D01*
X1684Y833D02*
X1715Y833D01*
X1684Y832D02*
X1715Y832D01*
X1684Y831D02*
X1715Y831D01*
X1684Y830D02*
X1715Y830D01*
X1684Y829D02*
X1715Y829D01*
X1684Y828D02*
X1715Y828D01*
X1684Y827D02*
X1715Y827D01*
X1684Y826D02*
X1715Y826D01*
X1684Y825D02*
X1715Y825D01*
X1684Y824D02*
X1715Y824D01*
X1684Y823D02*
X1715Y823D01*
X1684Y822D02*
X1715Y822D01*
X1684Y821D02*
X1715Y821D01*
X1684Y820D02*
X1715Y820D01*
X1684Y819D02*
X1715Y819D01*
X1684Y818D02*
X1715Y818D01*
X1684Y817D02*
X1715Y817D01*
X1684Y816D02*
X1715Y816D01*
X1684Y815D02*
X1715Y815D01*
X1684Y814D02*
X1715Y814D01*
X1684Y813D02*
X1715Y813D01*
X1684Y812D02*
X1715Y812D01*
X1684Y811D02*
X1715Y811D01*
X1684Y810D02*
X1715Y810D01*
X1684Y809D02*
X1715Y809D01*
X1684Y808D02*
X1715Y808D01*
X1684Y807D02*
X1715Y807D01*
X1684Y806D02*
X1715Y806D01*
X1684Y805D02*
X1715Y805D01*
X1684Y804D02*
X1715Y804D01*
X1684Y803D02*
X1715Y803D01*
X1684Y802D02*
X1715Y802D01*
X1684Y801D02*
X1715Y801D01*
X1684Y800D02*
X1715Y800D01*
X1684Y799D02*
X1715Y799D01*
X1684Y798D02*
X1715Y798D01*
X1684Y797D02*
X1715Y797D01*
X1684Y796D02*
X1715Y796D01*
X1684Y795D02*
X1715Y795D01*
X1684Y794D02*
X1715Y794D01*
X1684Y793D02*
X1715Y793D01*
X1684Y792D02*
X1715Y792D01*
X1684Y791D02*
X1715Y791D01*
X1684Y790D02*
X1715Y790D01*
X1684Y789D02*
X1715Y789D01*
X1684Y788D02*
X1715Y788D01*
X1684Y787D02*
X1715Y787D01*
X1684Y786D02*
X1715Y786D01*
X1684Y785D02*
X1715Y785D01*
X1684Y784D02*
X1715Y784D01*
X1684Y783D02*
X1715Y783D01*
X1684Y782D02*
X1715Y782D01*
X1684Y781D02*
X1715Y781D01*
X1684Y780D02*
X1715Y780D01*
X1684Y779D02*
X1715Y779D01*
X1684Y778D02*
X1715Y778D01*
X1684Y777D02*
X1715Y777D01*
X1684Y776D02*
X1715Y776D01*
X1684Y775D02*
X1715Y775D01*
X1684Y774D02*
X1715Y774D01*
X1684Y773D02*
X1715Y773D01*
X1684Y772D02*
X1715Y772D01*
X1684Y771D02*
X1715Y771D01*
X1684Y770D02*
X1715Y770D01*
X1684Y769D02*
X1715Y769D01*
X1684Y768D02*
X1715Y768D01*
X1684Y767D02*
X1715Y767D01*
X1684Y766D02*
X1715Y766D01*
X1684Y765D02*
X1715Y765D01*
X1684Y764D02*
X1715Y764D01*
X1684Y763D02*
X1715Y763D01*
X1684Y762D02*
X1715Y762D01*
X1684Y761D02*
X1715Y761D01*
X1684Y760D02*
X1715Y760D01*
X1684Y759D02*
X1715Y759D01*
X1684Y758D02*
X1715Y758D01*
X1684Y757D02*
X1715Y757D01*
X1684Y756D02*
X1715Y756D01*
X1684Y755D02*
X1715Y755D01*
X1684Y754D02*
X1715Y754D01*
X1684Y753D02*
X1715Y753D01*
X1684Y752D02*
X1715Y752D01*
X1684Y751D02*
X1715Y751D01*
X1684Y750D02*
X1715Y750D01*
X1684Y749D02*
X1715Y749D01*
X1684Y748D02*
X1715Y748D01*
X1684Y747D02*
X1715Y747D01*
X1684Y746D02*
X1715Y746D01*
X1684Y745D02*
X1715Y745D01*
X1684Y744D02*
X1715Y744D01*
X1684Y743D02*
X1715Y743D01*
X1684Y742D02*
X1715Y742D01*
X1684Y741D02*
X1715Y741D01*
X1684Y740D02*
X1715Y740D01*
X1684Y739D02*
X1715Y739D01*
X1684Y738D02*
X1715Y738D01*
X1684Y737D02*
X1715Y737D01*
X1684Y736D02*
X1715Y736D01*
X1684Y735D02*
X1715Y735D01*
X1684Y734D02*
X1715Y734D01*
X1684Y733D02*
X1715Y733D01*
X1684Y732D02*
X1715Y732D01*
X1684Y731D02*
X1715Y731D01*
X1684Y730D02*
X1715Y730D01*
X1684Y729D02*
X1715Y729D01*
X1684Y728D02*
X1715Y728D01*
X1684Y727D02*
X1715Y727D01*
X1684Y726D02*
X1715Y726D01*
X1684Y725D02*
X1715Y725D01*
X1684Y724D02*
X1715Y724D01*
X1684Y723D02*
X1715Y723D01*
X1684Y722D02*
X1715Y722D01*
X1684Y721D02*
X1715Y721D01*
X1684Y720D02*
X1715Y720D01*
X1684Y719D02*
X1715Y719D01*
X1684Y718D02*
X1715Y718D01*
X1684Y717D02*
X1715Y717D01*
X1684Y716D02*
X1715Y716D01*
X1684Y715D02*
X1715Y715D01*
X1684Y714D02*
X1715Y714D01*
X1684Y713D02*
X1715Y713D01*
X1684Y712D02*
X1715Y712D01*
X1684Y711D02*
X1715Y711D01*
X1684Y710D02*
X1715Y710D01*
X1684Y709D02*
X1715Y709D01*
X1684Y708D02*
X1715Y708D01*
X1684Y707D02*
X1715Y707D01*
X1684Y706D02*
X1715Y706D01*
X1684Y705D02*
X1715Y705D01*
X1684Y704D02*
X1715Y704D01*
X1684Y703D02*
X1715Y703D01*
X1684Y702D02*
X1715Y702D01*
X1684Y701D02*
X1715Y701D01*
X1684Y700D02*
X1715Y700D01*
X1684Y699D02*
X1715Y699D01*
X1684Y698D02*
X1715Y698D01*
X1684Y697D02*
X1715Y697D01*
X1684Y696D02*
X1715Y696D01*
X1684Y695D02*
X1715Y695D01*
X1684Y694D02*
X1715Y694D01*
X1684Y693D02*
X1715Y693D01*
X1684Y692D02*
X1715Y692D01*
X1684Y691D02*
X1715Y691D01*
X1684Y690D02*
X1715Y690D01*
X1684Y689D02*
X1715Y689D01*
X1684Y688D02*
X1715Y688D01*
X1684Y687D02*
X1715Y687D01*
X1684Y686D02*
X1715Y686D01*
X1684Y685D02*
X1715Y685D01*
X1684Y684D02*
X1715Y684D01*
X1684Y683D02*
X1715Y683D01*
X1684Y682D02*
X1715Y682D01*
X1684Y681D02*
X1715Y681D01*
X1684Y680D02*
X1715Y680D01*
X1684Y679D02*
X1715Y679D01*
X1684Y678D02*
X1715Y678D01*
X1684Y677D02*
X1715Y677D01*
X1684Y676D02*
X1715Y676D01*
X1684Y675D02*
X1715Y675D01*
X1684Y674D02*
X1715Y674D01*
X1684Y673D02*
X1715Y673D01*
X1684Y672D02*
X1715Y672D01*
X1684Y671D02*
X1715Y671D01*
X1684Y670D02*
X1715Y670D01*
X1684Y669D02*
X1715Y669D01*
X1684Y668D02*
X1715Y668D01*
X1684Y667D02*
X1715Y667D01*
X1684Y666D02*
X1715Y666D01*
X1684Y665D02*
X1715Y665D01*
X1684Y664D02*
X1715Y664D01*
X1684Y663D02*
X1715Y663D01*
X1684Y662D02*
X1715Y662D01*
X1684Y661D02*
X1715Y661D01*
X1684Y660D02*
X1715Y660D01*
X1684Y659D02*
X1715Y659D01*
X1684Y658D02*
X1715Y658D01*
X1684Y657D02*
X1715Y657D01*
X1684Y656D02*
X1715Y656D01*
X1684Y655D02*
X1715Y655D01*
X1684Y654D02*
X1715Y654D01*
X1684Y653D02*
X1715Y653D01*
X1684Y652D02*
X1715Y652D01*
X1684Y651D02*
X1715Y651D01*
X1684Y650D02*
X1715Y650D01*
X1684Y649D02*
X1715Y649D01*
X1684Y648D02*
X1715Y648D01*
X1684Y647D02*
X1715Y647D01*
X1684Y646D02*
X1715Y646D01*
X1684Y645D02*
X1715Y645D01*
X1684Y644D02*
X1715Y644D01*
X1684Y643D02*
X1715Y643D01*
X1684Y642D02*
X1715Y642D01*
X1684Y641D02*
X1715Y641D01*
X1684Y640D02*
X1715Y640D01*
X1684Y639D02*
X1715Y639D01*
X1684Y638D02*
X1715Y638D01*
X1684Y637D02*
X1715Y637D01*
X1684Y636D02*
X1715Y636D01*
X1684Y635D02*
X1715Y635D01*
X1684Y634D02*
X1715Y634D01*
X1684Y633D02*
X1715Y633D01*
X1684Y632D02*
X1715Y632D01*
X1684Y631D02*
X1715Y631D01*
X1684Y630D02*
X1715Y630D01*
X1684Y629D02*
X1715Y629D01*
X1684Y628D02*
X1715Y628D01*
X1684Y627D02*
X1715Y627D01*
X1684Y626D02*
X1715Y626D01*
X1684Y625D02*
X1715Y625D01*
X1684Y624D02*
X1715Y624D01*
X1684Y623D02*
X1715Y623D01*
X1684Y622D02*
X1715Y622D01*
X1684Y621D02*
X1715Y621D01*
X1684Y620D02*
X1715Y620D01*
X1684Y619D02*
X1715Y619D01*
X1684Y618D02*
X1715Y618D01*
X1684Y617D02*
X1715Y617D01*
X1684Y616D02*
X1715Y616D01*
X1684Y615D02*
X1715Y615D01*
X1684Y614D02*
X1715Y614D01*
X1684Y613D02*
X1715Y613D01*
X1684Y612D02*
X1715Y612D01*
X1684Y611D02*
X1715Y611D01*
X1684Y610D02*
X1715Y610D01*
X1684Y609D02*
X1715Y609D01*
X1684Y608D02*
X1715Y608D01*
X1684Y607D02*
X1715Y607D01*
X1684Y606D02*
X1715Y606D01*
X1684Y605D02*
X1715Y605D01*
X1684Y604D02*
X1715Y604D01*
X1684Y603D02*
X1715Y603D01*
X1684Y602D02*
X1715Y602D01*
X1684Y601D02*
X1715Y601D01*
X1684Y600D02*
X1715Y600D01*
X1684Y599D02*
X1715Y599D01*
X1684Y598D02*
X1715Y598D01*
X1684Y597D02*
X1715Y597D01*
X1684Y596D02*
X1715Y596D01*
X1684Y595D02*
X1715Y595D01*
X1684Y594D02*
X1715Y594D01*
X1684Y593D02*
X1715Y593D01*
X1684Y592D02*
X1715Y592D01*
X1684Y591D02*
X1715Y591D01*
X1684Y590D02*
X1715Y590D01*
X1684Y589D02*
X1715Y589D01*
X1684Y588D02*
X1715Y588D01*
X1684Y587D02*
X1715Y587D01*
X1684Y586D02*
X1715Y586D01*
X1684Y585D02*
X1715Y585D01*
X1684Y584D02*
X1715Y584D01*
X1684Y583D02*
X1715Y583D01*
X1684Y582D02*
X1715Y582D01*
X1684Y581D02*
X1715Y581D01*
X1684Y580D02*
X1715Y580D01*
X1684Y579D02*
X1715Y579D01*
X1684Y578D02*
X1715Y578D01*
X1684Y577D02*
X1715Y577D01*
X1684Y576D02*
X1715Y576D01*
X1684Y575D02*
X1715Y575D01*
X1684Y574D02*
X1715Y574D01*
X1684Y573D02*
X1715Y573D01*
X1684Y572D02*
X1715Y572D01*
X1684Y571D02*
X1715Y571D01*
X1684Y570D02*
X1715Y570D01*
X1684Y569D02*
X1715Y569D01*
X1684Y568D02*
X1715Y568D01*
X1684Y567D02*
X1715Y567D01*
X1684Y566D02*
X1715Y566D01*
X1684Y565D02*
X1715Y565D01*
X1684Y564D02*
X1715Y564D01*
X1684Y563D02*
X1715Y563D01*
X1684Y562D02*
X1715Y562D01*
X1684Y561D02*
X1715Y561D01*
X1684Y560D02*
X1715Y560D01*
X1684Y559D02*
X1715Y559D01*
X1684Y558D02*
X1715Y558D01*
X1684Y557D02*
X1715Y557D01*
X1684Y556D02*
X1715Y556D01*
X1684Y555D02*
X1715Y555D01*
X1684Y554D02*
X1715Y554D01*
X1684Y553D02*
X1715Y553D01*
X1684Y552D02*
X1715Y552D01*
X1684Y551D02*
X1715Y551D01*
X1684Y550D02*
X1715Y550D01*
X1684Y549D02*
X1715Y549D01*
X1684Y548D02*
X1715Y548D01*
X1684Y547D02*
X1715Y547D01*
X1684Y546D02*
X1715Y546D01*
X1684Y545D02*
X1715Y545D01*
X1684Y544D02*
X1715Y544D01*
X1684Y543D02*
X1715Y543D01*
X1684Y542D02*
X1715Y542D01*
X1684Y541D02*
X1715Y541D01*
X1684Y540D02*
X1715Y540D01*
X1684Y539D02*
X1715Y539D01*
X1684Y538D02*
X1715Y538D01*
X1684Y537D02*
X1715Y537D01*
X1684Y536D02*
X1715Y536D01*
X1684Y535D02*
X1715Y535D01*
X1684Y534D02*
X1715Y534D01*
X1684Y533D02*
X1715Y533D01*
X1684Y532D02*
X1715Y532D01*
X1684Y531D02*
X1715Y531D01*
X1684Y530D02*
X1715Y530D01*
X1684Y529D02*
X1715Y529D01*
X1684Y528D02*
X1715Y528D01*
X1684Y527D02*
X1715Y527D01*
X1684Y526D02*
X1715Y526D01*
X1684Y525D02*
X1715Y525D01*
X1684Y524D02*
X1715Y524D01*
X1684Y523D02*
X1715Y523D01*
X1684Y522D02*
X1715Y522D01*
X1684Y521D02*
X1715Y521D01*
X1684Y520D02*
X1715Y520D01*
X1684Y519D02*
X1715Y519D01*
X1684Y518D02*
X1715Y518D01*
X1684Y517D02*
X1715Y517D01*
X1684Y516D02*
X1715Y516D01*
X1684Y515D02*
X1715Y515D01*
X1684Y514D02*
X1715Y514D01*
X1684Y513D02*
X1715Y513D01*
X1684Y512D02*
X1715Y512D01*
X1684Y511D02*
X1715Y511D01*
X1684Y510D02*
X1715Y510D01*
X1684Y509D02*
X1715Y509D01*
X1684Y508D02*
X1715Y508D01*
X1684Y507D02*
X1715Y507D01*
X1684Y506D02*
X1715Y506D01*
X1684Y505D02*
X1715Y505D01*
X1684Y504D02*
X1715Y504D01*
X1684Y503D02*
X1715Y503D01*
X1684Y502D02*
X1715Y502D01*
X1684Y501D02*
X1715Y501D01*
X1684Y500D02*
X1715Y500D01*
X1684Y499D02*
X1715Y499D01*
X1684Y498D02*
X1715Y498D01*
X1684Y497D02*
X1715Y497D01*
X1684Y496D02*
X1715Y496D01*
X1684Y495D02*
X1715Y495D01*
X1684Y494D02*
X1715Y494D01*
X1684Y493D02*
X1715Y493D01*
X1684Y492D02*
X1715Y492D01*
X1684Y491D02*
X1715Y491D01*
X1684Y490D02*
X1715Y490D01*
X1684Y489D02*
X1715Y489D01*
X1684Y488D02*
X1715Y488D01*
X1684Y487D02*
X1715Y487D01*
X1684Y486D02*
X1715Y486D01*
X1684Y485D02*
X1715Y485D01*
X1684Y484D02*
X1715Y484D01*
X1684Y483D02*
X1715Y483D01*
X1684Y482D02*
X1715Y482D01*
X1684Y481D02*
X1715Y481D01*
X1684Y480D02*
X1715Y480D01*
X1684Y479D02*
X1715Y479D01*
X1684Y478D02*
X1714Y478D01*
X1684Y477D02*
X1714Y477D01*
X1684Y476D02*
X1714Y476D01*
X1684Y475D02*
X1714Y475D01*
X1684Y474D02*
X1714Y474D01*
X1684Y473D02*
X1714Y473D01*
X1685Y472D02*
X1713Y472D01*
X1685Y471D02*
X1713Y471D01*
X1686Y470D02*
X1712Y470D01*
X1687Y469D02*
X1711Y469D01*
X1687Y468D02*
X1711Y468D01*
X1688Y467D02*
X1710Y467D01*
X1689Y466D02*
X1709Y466D01*
X1691Y465D02*
X1707Y465D01*
X1692Y464D02*
X1706Y464D01*
X1695Y463D02*
X1703Y463D01*
X2183Y403D02*
X3003Y403D01*
X2180Y402D02*
X3007Y402D01*
X2178Y401D02*
X3009Y401D01*
X2176Y400D02*
X3011Y400D01*
X2175Y399D02*
X3012Y399D01*
X2174Y398D02*
X3013Y398D01*
X2172Y397D02*
X3015Y397D01*
X2171Y396D02*
X3016Y396D01*
X2171Y395D02*
X3016Y395D01*
X2170Y394D02*
X3017Y394D01*
X2169Y393D02*
X3018Y393D01*
X2169Y392D02*
X3019Y392D01*
X2168Y391D02*
X3019Y391D01*
X2167Y390D02*
X3020Y390D01*
X2167Y389D02*
X3020Y389D01*
X2167Y388D02*
X3020Y388D01*
X2166Y387D02*
X3021Y387D01*
X2166Y386D02*
X3021Y386D01*
X2166Y385D02*
X3021Y385D01*
X2166Y384D02*
X3022Y384D01*
X2165Y383D02*
X3022Y383D01*
X2165Y382D02*
X3022Y382D01*
X2165Y381D02*
X3022Y381D01*
X2165Y380D02*
X3022Y380D01*
X2165Y379D02*
X3022Y379D01*
X2165Y378D02*
X3022Y378D01*
X2165Y377D02*
X3022Y377D01*
X2166Y376D02*
X3022Y376D01*
X2166Y375D02*
X3022Y375D01*
X2166Y374D02*
X3021Y374D01*
X2166Y373D02*
X3021Y373D01*
X2167Y372D02*
X3021Y372D01*
X2167Y371D02*
X3020Y371D01*
X2167Y370D02*
X3020Y370D01*
X2168Y369D02*
X3019Y369D01*
X2169Y368D02*
X3019Y368D01*
X2169Y367D02*
X3018Y367D01*
X2170Y366D02*
X3018Y366D01*
X2171Y365D02*
X3017Y365D01*
X2171Y364D02*
X3016Y364D01*
X2172Y363D02*
X3015Y363D01*
X2173Y362D02*
X3014Y362D01*
X2175Y361D02*
X3013Y361D01*
X2176Y360D02*
X3012Y360D01*
X2178Y359D02*
X3010Y359D01*
X2180Y358D02*
X3008Y358D01*
X2183Y357D02*
X3006Y357D01*
X2189Y356D02*
X3002Y356D01*
D02*
G04 End of Copper0*
M02*