G04 MADE WITH FRITZING*
G04 WWW.FRITZING.ORG*
G04 DOUBLE SIDED*
G04 HOLES PLATED*
G04 CONTOUR ON CENTER OF CONTOUR VECTOR*
%ASAXBY*%
%FSLAX23Y23*%
%MOIN*%
%OFA0B0*%
%SFA1.0B1.0*%
%ADD10C,0.078000*%
%ADD11C,0.078125*%
%ADD12C,0.071828*%
%ADD13C,0.086000*%
%ADD14C,0.076000*%
%ADD15C,0.138425*%
%ADD16C,0.073667*%
%ADD17C,0.099583*%
%ADD18R,0.078000X0.078000*%
%ADD19R,0.077630X0.077806*%
%ADD20C,0.024000*%
%LNCOPPER0*%
G90*
G70*
G54D10*
X3099Y1779D03*
X3099Y1679D03*
X3099Y1579D03*
X3099Y1479D03*
G54D11*
X1199Y579D03*
X1199Y379D03*
X2189Y580D03*
X2189Y480D03*
X2189Y380D03*
G54D12*
X899Y1079D03*
X999Y1079D03*
X1099Y1079D03*
X1199Y1079D03*
X1298Y1079D03*
X1399Y1079D03*
X1499Y1079D03*
X1598Y1079D03*
X1699Y1079D03*
X1798Y1079D03*
X1899Y1079D03*
X1999Y1079D03*
X2098Y1079D03*
X2199Y1079D03*
X2298Y1079D03*
X2398Y1079D03*
X2498Y1079D03*
X2598Y1079D03*
X2698Y1079D03*
X2698Y2065D03*
X2598Y2065D03*
X2498Y2065D03*
X2398Y2065D03*
X2298Y2065D03*
X2199Y2065D03*
X2098Y2065D03*
X1999Y2065D03*
X1899Y2065D03*
X1798Y2065D03*
X1699Y2065D03*
X1598Y2065D03*
X1499Y2065D03*
X1399Y2065D03*
X1298Y2065D03*
X1199Y2065D03*
X1099Y2065D03*
X999Y2065D03*
X899Y2065D03*
G54D13*
X199Y619D03*
G54D14*
X899Y670D03*
G54D13*
X199Y279D03*
G54D14*
X899Y570D03*
X899Y470D03*
X899Y370D03*
G54D15*
X899Y220D03*
X899Y820D03*
G54D13*
X199Y417D03*
X199Y757D03*
G54D10*
X2999Y379D03*
X2999Y739D03*
X2399Y739D03*
X2399Y379D03*
G54D16*
X499Y1379D03*
X399Y1379D03*
X499Y1479D03*
X399Y1479D03*
X499Y1579D03*
X399Y1579D03*
X499Y1679D03*
X399Y1679D03*
X499Y1779D03*
X399Y1779D03*
G54D17*
X3099Y979D03*
X3099Y1175D03*
G54D18*
X3099Y1779D03*
G54D19*
X2399Y739D03*
X2399Y380D03*
X2999Y379D03*
X2999Y739D03*
G54D20*
X598Y1279D02*
X699Y1378D01*
D02*
X699Y1378D02*
X2398Y1378D01*
D02*
X297Y1279D02*
X598Y1279D01*
D02*
X2398Y1378D02*
X2798Y1678D01*
D02*
X298Y1580D02*
X297Y1279D01*
D02*
X2798Y1678D02*
X2798Y2179D01*
D02*
X378Y1579D02*
X298Y1580D01*
D02*
X2798Y2179D02*
X1900Y2179D01*
D02*
X1900Y2179D02*
X1899Y2084D01*
D02*
X1999Y2045D02*
X1999Y1780D01*
D02*
X1999Y1780D02*
X519Y1779D01*
D02*
X519Y1579D02*
X2197Y1579D01*
D02*
X2197Y1579D02*
X2199Y2045D01*
D02*
X2698Y880D02*
X2416Y747D01*
D02*
X2698Y1060D02*
X2698Y880D01*
D02*
X2980Y379D02*
X2418Y379D01*
D02*
X199Y777D02*
X198Y1678D01*
D02*
X198Y1678D02*
X378Y1679D01*
D02*
X2299Y1480D02*
X2298Y2045D01*
D02*
X519Y1479D02*
X2299Y1480D01*
D02*
X2098Y1678D02*
X1798Y1678D01*
D02*
X1798Y1678D02*
X519Y1679D01*
D02*
X2098Y2045D02*
X2098Y1678D01*
D02*
X1798Y1879D02*
X399Y1879D01*
D02*
X399Y1879D02*
X399Y1799D01*
D02*
X1798Y2045D02*
X1798Y1879D01*
D02*
X198Y2080D02*
X880Y2065D01*
D02*
X198Y1678D02*
X198Y2080D01*
D02*
X378Y1679D02*
X198Y1678D01*
D02*
X1600Y478D02*
X1099Y479D01*
D02*
X1598Y1060D02*
X1600Y478D01*
D02*
X1099Y479D02*
X998Y379D01*
D02*
X998Y379D02*
X918Y372D01*
D02*
X1500Y979D02*
X1499Y1060D01*
D02*
X697Y979D02*
X1500Y979D01*
D02*
X697Y478D02*
X697Y979D01*
D02*
X879Y471D02*
X697Y478D01*
D02*
X3080Y1679D02*
X2899Y1678D01*
D02*
X1399Y2279D02*
X1399Y2084D01*
D02*
X2899Y2279D02*
X1399Y2279D01*
D02*
X2899Y1678D02*
X2899Y2279D01*
D02*
X1699Y478D02*
X1699Y1060D01*
D02*
X2176Y479D02*
X1699Y478D01*
D02*
X1198Y280D02*
X1198Y366D01*
D02*
X3098Y280D02*
X1198Y280D01*
D02*
X3099Y679D02*
X3098Y280D01*
D02*
X3015Y729D02*
X3099Y679D01*
D02*
X2380Y379D02*
X2202Y379D01*
D02*
X2383Y728D02*
X2199Y587D01*
D02*
X918Y571D02*
X1186Y579D01*
D02*
X2798Y778D02*
X2412Y393D01*
D02*
X2798Y1180D02*
X2798Y778D01*
D02*
X2197Y1180D02*
X2798Y1180D01*
D02*
X2198Y1099D02*
X2197Y1180D01*
D02*
X2198Y1099D02*
X2197Y1180D01*
D02*
X2798Y1180D02*
X3085Y1466D01*
D02*
X2197Y1180D02*
X2798Y1180D01*
D02*
X2698Y1279D02*
X3083Y1568D01*
D02*
X898Y1279D02*
X2698Y1279D01*
D02*
X899Y1099D02*
X898Y1279D01*
D02*
X99Y2179D02*
X99Y78D01*
D02*
X99Y78D02*
X3200Y78D01*
D02*
X3200Y78D02*
X3199Y1780D01*
D02*
X3199Y1780D02*
X3118Y1779D01*
D02*
X1099Y2179D02*
X99Y2179D01*
D02*
X1099Y2084D02*
X1099Y2179D01*
D02*
X3099Y1460D02*
X3099Y1204D01*
D02*
X3087Y952D02*
X3006Y757D01*
G04 End of Copper0*
M02*